<svg version="1.1" viewBox="0.0 0.0 600.0 371.0" fill="none" stroke="none" stroke-linecap="square" stroke-miterlimit="10" width="600" height="371" xmlns:xlink="http://www.w3.org/1999/xlink" xmlns="http://www.w3.org/2000/svg"><path fill="#ffffff" d="M0 0L600.0 0L600.0 371.0L0 371.0L0 0Z" fill-rule="nonzero"/><path stroke="#333333" stroke-width="1.0" stroke-linecap="butt" d="M111.5 300.5L581.5 300.5" fill-rule="nonzero"/><path stroke="#cccccc" stroke-width="1.0" stroke-linecap="butt" d="M111.5 220.5L581.5 220.5" fill-rule="nonzero"/><path stroke="#cccccc" stroke-width="1.0" stroke-linecap="butt" d="M111.5 141.5L581.5 141.5" fill-rule="nonzero"/><path stroke="#cccccc" stroke-width="1.0" stroke-linecap="butt" d="M111.5 61.5L581.5 61.5" fill-rule="nonzero"/><clipPath id="id_0"><path d="M111.55 61.916668L581.45 61.916668L581.45 300.45L111.55 300.45L111.55 61.916668Z" clip-rule="nonzero"/></clipPath><path stroke="#000000" stroke-width="2.0" stroke-linecap="butt" stroke-opacity="0.0" clip-path="url(#id_0)" d="M157.0 300.0L127.0 300.0L127.0 244.0C127.0 242.89543 127.89543 242.0 129.0 242.0L155.0 242.0C156.10457 242.0 157.0 242.89543 157.0 244.0Z" fill-rule="nonzero"/><path fill="#4285f4" clip-path="url(#id_0)" d="M157.0 300.0L127.0 300.0L127.0 244.0C127.0 242.89543 127.89543 242.0 129.0 242.0L155.0 242.0C156.10457 242.0 157.0 242.89543 157.0 244.0Z" fill-rule="nonzero"/><path stroke="#000000" stroke-width="2.0" stroke-linecap="butt" stroke-opacity="0.0" clip-path="url(#id_0)" d="M203.0 300.0L173.0 300.0L173.0 193.0C173.0 191.89543 173.89543 191.0 175.0 191.0L201.0 191.0C202.10457 191.0 203.0 191.89543 203.0 193.0Z" fill-rule="nonzero"/><path fill="#4285f4" clip-path="url(#id_0)" d="M203.0 300.0L173.0 300.0L173.0 193.0C173.0 191.89543 173.89543 191.0 175.0 191.0L201.0 191.0C202.10457 191.0 203.0 191.89543 203.0 193.0Z" fill-rule="nonzero"/><path stroke="#000000" stroke-width="2.0" stroke-linecap="butt" stroke-opacity="0.0" clip-path="url(#id_0)" d="M248.0 300.0L218.0 300.0L218.0 158.0C218.0 156.89543 218.89543 156.0 220.0 156.0L246.0 156.0C247.10457 156.0 248.0 156.89543 248.0 158.0Z" fill-rule="nonzero"/><path fill="#4285f4" clip-path="url(#id_0)" d="M248.0 300.0L218.0 300.0L218.0 158.0C218.0 156.89543 218.89543 156.0 220.0 156.0L246.0 156.0C247.10457 156.0 248.0 156.89543 248.0 158.0Z" fill-rule="nonzero"/><path stroke="#000000" stroke-width="2.0" stroke-linecap="butt" stroke-opacity="0.0" clip-path="url(#id_0)" d="M293.0 300.0L263.0 300.0L263.0 141.0C263.0 139.89543 263.89542 139.0 265.0 139.0L291.0 139.0C292.10458 139.0 293.0 139.89543 293.0 141.0Z" fill-rule="nonzero"/><path fill="#4285f4" clip-path="url(#id_0)" d="M293.0 300.0L263.0 300.0L263.0 141.0C263.0 139.89543 263.89542 139.0 265.0 139.0L291.0 139.0C292.10458 139.0 293.0 139.89543 293.0 141.0Z" fill-rule="nonzero"/><path stroke="#000000" stroke-width="2.0" stroke-linecap="butt" stroke-opacity="0.0" clip-path="url(#id_0)" d="M339.0 300.0L309.0 300.0L309.0 124.0C309.0 122.89543 309.89542 122.0 311.0 122.0L337.0 122.0C338.10458 122.0 339.0 122.89543 339.0 124.0Z" fill-rule="nonzero"/><path fill="#4285f4" clip-path="url(#id_0)" d="M339.0 300.0L309.0 300.0L309.0 124.0C309.0 122.89543 309.89542 122.0 311.0 122.0L337.0 122.0C338.10458 122.0 339.0 122.89543 339.0 124.0Z" fill-rule="nonzero"/><path stroke="#000000" stroke-width="2.0" stroke-linecap="butt" stroke-opacity="0.0" clip-path="url(#id_0)" d="M384.0 300.0L354.0 300.0L354.0 112.0C354.0 110.89543 354.89542 110.0 356.0 110.0L382.0 110.0C383.10458 110.0 384.0 110.89543 384.0 112.0Z" fill-rule="nonzero"/><path fill="#4285f4" clip-path="url(#id_0)" d="M384.0 300.0L354.0 300.0L354.0 112.0C354.0 110.89543 354.89542 110.0 356.0 110.0L382.0 110.0C383.10458 110.0 384.0 110.89543 384.0 112.0Z" fill-rule="nonzero"/><path stroke="#000000" stroke-width="2.0" stroke-linecap="butt" stroke-opacity="0.0" clip-path="url(#id_0)" d="M430.0 300.0L400.0 300.0L400.0 98.0C400.0 96.89543 400.89542 96.0 402.0 96.0L428.0 96.0C429.10458 96.0 430.0 96.89543 430.0 98.0Z" fill-rule="nonzero"/><path fill="#4285f4" clip-path="url(#id_0)" d="M430.0 300.0L400.0 300.0L400.0 98.0C400.0 96.89543 400.89542 96.0 402.0 96.0L428.0 96.0C429.10458 96.0 430.0 96.89543 430.0 98.0Z" fill-rule="nonzero"/><path stroke="#000000" stroke-width="2.0" stroke-linecap="butt" stroke-opacity="0.0" clip-path="url(#id_0)" d="M475.0 300.0L445.0 300.0L445.0 96.0C445.0 94.89543 445.89542 94.0 447.0 94.0L473.0 94.0C474.10458 94.0 475.0 94.89543 475.0 96.0Z" fill-rule="nonzero"/><path fill="#4285f4" clip-path="url(#id_0)" d="M475.0 300.0L445.0 300.0L445.0 96.0C445.0 94.89543 445.89542 94.0 447.0 94.0L473.0 94.0C474.10458 94.0 475.0 94.89543 475.0 96.0Z" fill-rule="nonzero"/><path stroke="#000000" stroke-width="2.0" stroke-linecap="butt" stroke-opacity="0.0" clip-path="url(#id_0)" d="M520.0 300.0L490.0 300.0L490.0 102.0C490.0 100.89543 490.89542 100.0 492.0 100.0L518.0 100.0C519.10455 100.0 520.0 100.89543 520.0 102.0Z" fill-rule="nonzero"/><path fill="#4285f4" clip-path="url(#id_0)" d="M520.0 300.0L490.0 300.0L490.0 102.0C490.0 100.89543 490.89542 100.0 492.0 100.0L518.0 100.0C519.10455 100.0 520.0 100.89543 520.0 102.0Z" fill-rule="nonzero"/><path stroke="#000000" stroke-width="2.0" stroke-linecap="butt" stroke-opacity="0.0" clip-path="url(#id_0)" d="M566.0 300.0L536.0 300.0L536.0 103.0C536.0 101.89543 536.89545 101.0 538.0 101.0L564.0 101.0C565.10455 101.0 566.0 101.89543 566.0 103.0Z" fill-rule="nonzero"/><path fill="#4285f4" clip-path="url(#id_0)" d="M566.0 300.0L536.0 300.0L536.0 103.0C536.0 101.89543 536.89545 101.0 538.0 101.0L564.0 101.0C565.10455 101.0 566.0 101.89543 566.0 103.0Z" fill-rule="nonzero"/><path fill="#000000" d="M319.10938 349.59064L319.60938 347.10626L318.625 347.10626L318.625 346.23126L319.79688 346.23126L320.21875 344.10626L318.625 344.10626L318.625 343.23126L320.40625 343.23126L320.90625 340.71564L321.78125 340.71564L321.28125 343.23126L323.125 343.23126L323.64062 340.71564L324.51562 340.71564L324.01562 343.23126L325.01562 343.23126L325.01562 344.10626L323.82812 344.10626L323.39062 346.23126L325.01562 346.23126L325.01562 347.10626L323.21875 347.10626L322.70312 349.59064L321.82812 349.59064L322.32812 347.10626L320.5 347.10626L319.98438 349.59064L319.10938 349.59064ZM320.67188 346.23126L322.51562 346.23126L322.95312 344.10626L321.10938 344.10626L320.67188 346.23126ZM329.04688 346.6844L330.10938 346.59064Q330.1875 347.2469 330.46875 347.65314Q330.75 348.0594 331.32812 348.325Q331.92188 348.575 332.65625 348.575Q333.29688 348.575 333.79688 348.3875Q334.29688 348.1844 334.53125 347.85626Q334.78125 347.5125 334.78125 347.1219Q334.78125 346.71564 334.54688 346.41876Q334.3125 346.10626 333.78125 345.90314Q333.42188 345.7625 332.23438 345.48126Q331.0625 345.2 330.59375 344.95Q329.96875 344.6219 329.67188 344.15314Q329.375 343.66876 329.375 343.075Q329.375 342.4344 329.73438 341.8719Q330.10938 341.29376 330.8125 341.0125Q331.53125 340.71564 332.39062 340.71564Q333.34375 340.71564 334.07812 341.02814Q334.8125 341.325 335.20312 341.9344Q335.59375 342.52814 335.625 343.27814L334.53125 343.35626Q334.4375 342.54376 333.92188 342.1375Q333.42188 341.71564 332.4375 341.71564Q331.40625 341.71564 330.9375 342.09064Q330.46875 342.46564 330.46875 342.9969Q330.46875 343.46564 330.79688 343.7625Q331.125 344.0594 332.5 344.3719Q333.89062 344.6844 334.40625 344.91876Q335.15625 345.27814 335.51562 345.8094Q335.875 346.325 335.875 347.02814Q335.875 347.71564 335.48438 348.325Q335.09375 348.91876 334.35938 349.2625Q333.625 349.59064 332.70312 349.59064Q331.53125 349.59064 330.73438 349.2625Q329.95312 348.91876 329.5 348.23126Q329.0625 347.54376 329.04688 346.6844ZM336.90625 346.34064Q336.90625 344.60626 337.85938 343.77814Q338.65625 343.09064 339.8125 343.09064Q341.09375 343.09064 341.90625 343.9344Q342.73438 344.7625 342.73438 346.2469Q342.73438 347.45 342.375 348.1375Q342.01562 348.825 341.3125 349.21564Q340.625 349.59064 339.8125 349.59064Q338.51562 349.59064 337.70312 348.7625Q336.90625 347.91876 336.90625 346.34064ZM337.98438 346.34064Q337.98438 347.52814 338.5 348.1219Q339.03125 348.71564 339.8125 348.71564Q340.60938 348.71564 341.125 348.1219Q341.64062 347.52814 341.64062 346.3094Q341.64062 345.15314 341.10938 344.5594Q340.59375 343.96564 339.8125 343.96564Q339.03125 343.96564 338.5 344.5594Q337.98438 345.1375 337.98438 346.34064ZM348.375 349.45L348.375 348.52814Q347.64062 349.59064 346.39062 349.59064Q345.84375 349.59064 345.35938 349.3875Q344.89062 349.16876 344.65625 348.85626Q344.42188 348.52814 344.32812 348.0594Q344.26562 347.7625 344.26562 347.075L344.26562 343.23126L345.32812 343.23126L345.32812 346.6844Q345.32812 347.4969 345.39062 347.79376Q345.48438 348.2 345.79688 348.45Q346.125 348.6844 346.60938 348.6844Q347.07812 348.6844 347.48438 348.45Q347.90625 348.2 348.07812 347.77814Q348.26562 347.35626 348.26562 346.5594L348.26562 343.23126L349.3125 343.23126L349.3125 349.45L348.375 349.45ZM351.28125 349.45L351.28125 343.23126L352.23438 343.23126L352.23438 344.16876Q352.59375 343.5125 352.89062 343.3094Q353.20312 343.09064 353.57812 343.09064Q354.10938 343.09064 354.65625 343.41876L354.29688 344.40314Q353.90625 344.16876 353.53125 344.16876Q353.17188 344.16876 352.89062 344.3875Q352.625 344.59064 352.51562 344.96564Q352.32812 345.52814 352.32812 346.1844L352.32812 349.45L351.28125 349.45ZM359.35938 347.16876L360.39062 347.3094Q360.21875 348.3719 359.51562 348.98126Q358.8125 349.59064 357.79688 349.59064Q356.51562 349.59064 355.73438 348.7625Q354.96875 347.91876 354.96875 346.35626Q354.96875 345.35626 355.29688 344.60626Q355.64062 343.84064 356.3125 343.46564Q357.0 343.09064 357.8125 343.09064Q358.8125 343.09064 359.45312 343.60626Q360.10938 344.10626 360.29688 345.0594L359.26562 345.21564Q359.125 344.59064 358.75 344.27814Q358.375 343.95 357.84375 343.95Q357.04688 343.95 356.54688 344.52814Q356.04688 345.09064 356.04688 346.325Q356.04688 347.59064 356.53125 348.15314Q357.01562 348.71564 357.78125 348.71564Q358.40625 348.71564 358.8125 348.34064Q359.23438 347.96564 359.35938 347.16876ZM365.54688 347.45L366.64062 347.575Q366.39062 348.52814 365.6875 349.0594Q364.98438 349.59064 363.90625 349.59064Q362.54688 349.59064 361.73438 348.7469Q360.9375 347.90314 360.9375 346.3875Q360.9375 344.825 361.75 343.96564Q362.5625 343.09064 363.84375 343.09064Q365.09375 343.09064 365.875 343.9344Q366.67188 344.77814 366.67188 346.325Q366.67188 346.41876 366.67188 346.60626L362.03125 346.60626Q362.09375 347.6375 362.60938 348.1844Q363.125 348.71564 363.90625 348.71564Q364.48438 348.71564 364.89062 348.41876Q365.3125 348.10626 365.54688 347.45ZM362.09375 345.7469L365.5625 345.7469Q365.5 344.95 365.17188 344.5594Q364.65625 343.95 363.85938 343.95Q363.125 343.95 362.625 344.4344Q362.14062 344.91876 362.09375 345.7469ZM367.875 347.59064L368.90625 347.4344Q369.0 348.0594 369.39062 348.3875Q369.79688 348.71564 370.53125 348.71564Q371.25 348.71564 371.59375 348.4344Q371.95312 348.1375 371.95312 347.73126Q371.95312 347.3719 371.64062 347.16876Q371.42188 347.02814 370.5625 346.8094Q369.40625 346.5125 368.95312 346.3094Q368.51562 346.09064 368.28125 345.71564Q368.04688 345.34064 368.04688 344.8719Q368.04688 344.46564 368.23438 344.10626Q368.42188 343.7469 368.75 343.5125Q369.0 343.34064 369.42188 343.21564Q369.84375 343.09064 370.34375 343.09064Q371.0625 343.09064 371.60938 343.3094Q372.17188 343.5125 372.4375 343.8719Q372.70312 344.23126 372.79688 344.825L371.76562 344.96564Q371.70312 344.4969 371.35938 344.23126Q371.03125 343.95 370.40625 343.95Q369.6875 343.95 369.375 344.2Q369.0625 344.4344 369.0625 344.7625Q369.0625 344.96564 369.1875 345.1219Q369.32812 345.29376 369.59375 345.40314Q369.75 345.46564 370.53125 345.66876Q371.65625 345.98126 372.09375 346.16876Q372.53125 346.35626 372.78125 346.71564Q373.03125 347.075 373.03125 347.6219Q373.03125 348.15314 372.71875 348.6219Q372.42188 349.075 371.84375 349.34064Q371.26562 349.59064 370.53125 349.59064Q369.3125 349.59064 368.67188 349.09064Q368.04688 348.575 367.875 347.59064Z" fill-rule="nonzero"/><path fill="#000000" d="M29.550013 199.74583L20.956263 199.74583L20.956263 195.93333Q20.956263 194.77708 21.190638 194.18333Q21.425013 193.58958 22.018763 193.23021Q22.596888 192.87083 23.300013 192.87083Q24.221888 192.87083 24.846888 193.46458Q25.471888 194.05833 25.643763 195.29271Q25.862513 194.83958 26.065638 194.60521Q26.518763 194.10521 27.206263 193.66771L29.550013 192.16771L29.550013 193.60521L27.768763 194.73021Q26.987513 195.23021 26.581263 195.55833Q26.175013 195.87083 26.018763 196.13646Q25.846888 196.38646 25.768763 196.65208Q25.737513 196.83958 25.737513 197.27708L25.737513 198.60521L29.550013 198.60521L29.550013 199.74583ZM24.753138 198.60521L24.753138 196.15208Q24.753138 195.38646 24.596888 194.94896Q24.425013 194.49583 24.081263 194.27708Q23.721888 194.04271 23.300013 194.04271Q22.690638 194.04271 22.300013 194.49583Q21.909388 194.93333 21.909388 195.88646L21.909388 198.60521L24.753138 198.60521ZM28.784388 186.82396Q29.284388 187.41771 29.487513 187.96458Q29.690638 188.49583 29.690638 189.12083Q29.690638 190.15208 29.190638 190.69896Q28.690638 191.24583 27.909388 191.24583Q27.456263 191.24583 27.081263 191.04271Q26.690638 190.83958 26.471888 190.49583Q26.237513 190.15208 26.128138 189.73021Q26.034388 189.43333 25.956263 188.79271Q25.815638 187.52708 25.596888 186.91771Q25.378138 186.91771 25.331263 186.91771Q24.675013 186.91771 24.409388 187.21458Q24.065638 187.62083 24.065638 188.41771Q24.065638 189.15208 24.331263 189.51146Q24.581263 189.87083 25.237513 190.04271L25.096888 191.07396Q24.440638 190.93333 24.034388 190.60521Q23.628138 190.27708 23.409388 189.66771Q23.190638 189.05833 23.190638 188.26146Q23.190638 187.46458 23.378138 186.96458Q23.565638 186.46458 23.846888 186.23021Q24.128138 185.99583 24.565638 185.90208Q24.831263 185.85521 25.534388 185.85521L26.940638 185.85521Q28.409388 185.85521 28.800013 185.79271Q29.190638 185.71458 29.550013 185.51146L29.550013 186.62083Q29.221888 186.77708 28.784388 186.82396ZM26.425013 186.91771Q26.659388 187.49583 26.831263 188.63646Q26.925013 189.29271 27.050013 189.55833Q27.159388 189.82396 27.378138 189.98021Q27.596888 190.12083 27.878138 190.12083Q28.300013 190.12083 28.581263 189.80833Q28.862513 189.48021 28.862513 188.87083Q28.862513 188.26146 28.596888 187.79271Q28.331263 187.30833 27.862513 187.08958Q27.503138 186.91771 26.815638 186.91771L26.425013 186.91771ZM28.612513 181.58958L29.534388 181.43333Q29.628138 181.88646 29.628138 182.23021Q29.628138 182.80833 29.456263 183.12083Q29.268763 183.43333 28.971888 183.57396Q28.675013 183.69896 27.721888 183.69896L24.143763 183.69896L24.143763 184.46458L23.331263 184.46458L23.331263 183.69896L21.784388 183.69896L21.159388 182.65208L23.331263 182.65208L23.331263 181.58958L24.143763 181.58958L24.143763 182.65208L27.784388 182.65208Q28.237513 182.65208 28.362513 182.60521Q28.487513 182.54271 28.565638 182.41771Q28.643763 182.29271 28.643763 182.05833Q28.643763 181.87083 28.612513 181.58958ZM27.550013 176.63646L27.675013 175.54271Q28.628138 175.79271 29.159388 176.49583Q29.690638 177.19896 29.690638 178.27708Q29.690638 179.63646 28.846888 180.44896Q28.003138 181.24583 26.487513 181.24583Q24.925013 181.24583 24.065638 180.43333Q23.190638 179.62083 23.190638 178.33958Q23.190638 177.08958 24.034388 176.30833Q24.878138 175.51146 26.425013 175.51146Q26.518763 175.51146 26.706263 175.51146L26.706263 180.15208Q27.737513 180.08958 28.284388 179.57396Q28.815638 179.05833 28.815638 178.27708Q28.815638 177.69896 28.518763 177.29271Q28.206263 176.87083 27.550013 176.63646ZM25.846888 180.08958L25.846888 176.62083Q25.050013 176.68333 24.659388 177.01146Q24.050013 177.52708 24.050013 178.32396Q24.050013 179.05833 24.534388 179.55833Q25.018763 180.04271 25.846888 180.08958Z" fill-rule="nonzero"/><path fill="#000000" d="M99.05 300.21564Q99.05 298.6844 99.3625 297.7625Q99.675 296.825 100.28438 296.325Q100.90938 295.825 101.84688 295.825Q102.53438 295.825 103.05 296.10626Q103.58125 296.3875 103.925 296.91876Q104.26875 297.4344 104.45625 298.1844Q104.64375 298.9344 104.64375 300.21564Q104.64375 301.73126 104.33125 302.65314Q104.03438 303.575 103.40938 304.09064Q102.8 304.59064 101.84688 304.59064Q100.6125 304.59064 99.89375 303.7Q99.05 302.6375 99.05 300.21564ZM100.12813 300.21564Q100.12813 302.325 100.62813 303.02814Q101.12813 303.73126 101.84688 303.73126Q102.58125 303.73126 103.06563 303.02814Q103.56563 302.325 103.56563 300.21564Q103.56563 298.09064 103.06563 297.40314Q102.58125 296.7 101.83125 296.7Q101.1125 296.7 100.675 297.3094Q100.12813 298.09064 100.12813 300.21564Z" fill-rule="nonzero"/><path fill="#000000" d="M56.596874 223.92326L56.596874 224.93889L50.909374 224.93889Q50.909374 224.56389 51.034374 224.20451Q51.253124 223.62639 51.721874 223.06389Q52.20625 222.50139 53.1125 221.76701Q54.51875 220.61076 55.003124 219.93889Q55.503124 219.26701 55.503124 218.67326Q55.503124 218.04826 55.05 217.62639Q54.596874 217.18889 53.878124 217.18889Q53.1125 217.18889 52.659374 217.64201Q52.20625 218.09514 52.190624 218.90764L51.1125 218.79826Q51.221874 217.57951 51.940624 216.95451Q52.675 216.31389 53.909374 216.31389Q55.14375 216.31389 55.8625 217.00139Q56.58125 217.68889 56.58125 218.70451Q56.58125 219.22014 56.3625 219.72014Q56.159374 220.20451 55.659374 220.76701Q55.175 221.31389 54.05 222.26701Q53.096874 223.06389 52.815624 223.36076Q52.55 223.64201 52.378124 223.92326L56.596874 223.92326ZM58.6125 224.93889L58.6125 223.73576L59.815624 223.73576L59.815624 224.93889Q59.815624 225.59514 59.58125 226.00139Q59.346874 226.42326 58.846874 226.64201L58.55 226.18889Q58.878124 226.04826 59.034374 225.75139Q59.190624 225.47014 59.221874 224.93889L58.6125 224.93889ZM61.05 220.70451Q61.05 219.17326 61.3625 218.25139Q61.675 217.31389 62.284374 216.81389Q62.909374 216.31389 63.846874 216.31389Q64.53438 216.31389 65.05 216.59514Q65.58125 216.87639 65.925 217.40764Q66.26875 217.92326 66.45625 218.67326Q66.64375 219.42326 66.64375 220.70451Q66.64375 222.22014 66.33125 223.14201Q66.03438 224.06389 65.40938 224.57951Q64.8 225.07951 63.846874 225.07951Q62.6125 225.07951 61.89375 224.18889Q61.05 223.12639 61.05 220.70451ZM62.128124 220.70451Q62.128124 222.81389 62.628124 223.51701Q63.128124 224.22014 63.846874 224.22014Q64.58125 224.22014 65.06563 223.51701Q65.56563 222.81389 65.56563 220.70451Q65.56563 218.57951 65.06563 217.89201Q64.58125 217.18889 63.83125 217.18889Q63.1125 217.18889 62.675 217.79826Q62.128124 218.57951 62.128124 220.70451ZM68.05 220.70451Q68.05 219.17326 68.3625 218.25139Q68.675 217.31389 69.28438 216.81389Q69.90938 216.31389 70.84688 216.31389Q71.53438 216.31389 72.05 216.59514Q72.58125 216.87639 72.925 217.40764Q73.26875 217.92326 73.45625 218.67326Q73.64375 219.42326 73.64375 220.70451Q73.64375 222.22014 73.33125 223.14201Q73.03438 224.06389 72.40938 224.57951Q71.8 225.07951 70.84688 225.07951Q69.6125 225.07951 68.89375 224.18889Q68.05 223.12639 68.05 220.70451ZM69.12813 220.70451Q69.12813 222.81389 69.62813 223.51701Q70.12813 224.22014 70.84688 224.22014Q71.58125 224.22014 72.06563 223.51701Q72.56563 222.81389 72.56563 220.70451Q72.56563 218.57951 72.06563 217.89201Q71.58125 217.18889 70.83125 217.18889Q70.1125 217.18889 69.675 217.79826Q69.12813 218.57951 69.12813 220.70451ZM75.05 220.70451Q75.05 219.17326 75.3625 218.25139Q75.675 217.31389 76.28438 216.81389Q76.90938 216.31389 77.84688 216.31389Q78.53438 216.31389 79.05 216.59514Q79.58125 216.87639 79.925 217.40764Q80.26875 217.92326 80.45625 218.67326Q80.64375 219.42326 80.64375 220.70451Q80.64375 222.22014 80.33125 223.14201Q80.03438 224.06389 79.40938 224.57951Q78.8 225.07951 77.84688 225.07951Q76.6125 225.07951 75.89375 224.18889Q75.05 223.12639 75.05 220.70451ZM76.12813 220.70451Q76.12813 222.81389 76.62813 223.51701Q77.12813 224.22014 77.84688 224.22014Q78.58125 224.22014 79.06563 223.51701Q79.56563 222.81389 79.56563 220.70451Q79.56563 218.57951 79.06563 217.89201Q78.58125 217.18889 77.83125 217.18889Q77.1125 217.18889 76.675 217.79826Q76.12813 218.57951 76.12813 220.70451ZM82.6125 224.93889L82.6125 223.73576L83.81563 223.73576L83.81563 224.93889Q83.81563 225.59514 83.58125 226.00139Q83.34688 226.42326 82.84688 226.64201L82.55 226.18889Q82.87813 226.04826 83.03438 225.75139Q83.19063 225.47014 83.22188 224.93889L82.6125 224.93889ZM85.05 220.70451Q85.05 219.17326 85.3625 218.25139Q85.675 217.31389 86.28438 216.81389Q86.90938 216.31389 87.84688 216.31389Q88.53438 216.31389 89.05 216.59514Q89.58125 216.87639 89.925 217.40764Q90.26875 217.92326 90.45625 218.67326Q90.64375 219.42326 90.64375 220.70451Q90.64375 222.22014 90.33125 223.14201Q90.03438 224.06389 89.40938 224.57951Q88.8 225.07951 87.84688 225.07951Q86.6125 225.07951 85.89375 224.18889Q85.05 223.12639 85.05 220.70451ZM86.12813 220.70451Q86.12813 222.81389 86.62813 223.51701Q87.12813 224.22014 87.84688 224.22014Q88.58125 224.22014 89.06563 223.51701Q89.56563 222.81389 89.56563 220.70451Q89.56563 218.57951 89.06563 217.89201Q88.58125 217.18889 87.83125 217.18889Q87.1125 217.18889 86.675 217.79826Q86.12813 218.57951 86.12813 220.70451ZM92.05 220.70451Q92.05 219.17326 92.3625 218.25139Q92.675 217.31389 93.28438 216.81389Q93.90938 216.31389 94.84688 216.31389Q95.53438 216.31389 96.05 216.59514Q96.58125 216.87639 96.925 217.40764Q97.26875 217.92326 97.45625 218.67326Q97.64375 219.42326 97.64375 220.70451Q97.64375 222.22014 97.33125 223.14201Q97.03438 224.06389 96.40938 224.57951Q95.8 225.07951 94.84688 225.07951Q93.6125 225.07951 92.89375 224.18889Q92.05 223.12639 92.05 220.70451ZM93.12813 220.70451Q93.12813 222.81389 93.62813 223.51701Q94.12813 224.22014 94.84688 224.22014Q95.58125 224.22014 96.06563 223.51701Q96.56563 222.81389 96.56563 220.70451Q96.56563 218.57951 96.06563 217.89201Q95.58125 217.18889 94.83125 217.18889Q94.1125 217.18889 93.675 217.79826Q93.12813 218.57951 93.12813 220.70451ZM99.05 220.70451Q99.05 219.17326 99.3625 218.25139Q99.675 217.31389 100.28438 216.81389Q100.90938 216.31389 101.84688 216.31389Q102.53438 216.31389 103.05 216.59514Q103.58125 216.87639 103.925 217.40764Q104.26875 217.92326 104.45625 218.67326Q104.64375 219.42326 104.64375 220.70451Q104.64375 222.22014 104.33125 223.14201Q104.03438 224.06389 103.40938 224.57951Q102.8 225.07951 101.84688 225.07951Q100.6125 225.07951 99.89375 224.18889Q99.05 223.12639 99.05 220.70451ZM100.12813 220.70451Q100.12813 222.81389 100.62813 223.51701Q101.12813 224.22014 101.84688 224.22014Q102.58125 224.22014 103.06563 223.51701Q103.56563 222.81389 103.56563 220.70451Q103.56563 218.57951 103.06563 217.89201Q102.58125 217.18889 101.83125 217.18889Q101.1125 217.18889 100.675 217.79826Q100.12813 218.57951 100.12813 220.70451Z" fill-rule="nonzero"/><path fill="#000000" d="M54.425 145.42778L54.425 143.36528L50.70625 143.36528L50.70625 142.39653L54.628124 136.83403L55.4875 136.83403L55.4875 142.39653L56.64375 142.39653L56.64375 143.36528L55.4875 143.36528L55.4875 145.42778L54.425 145.42778ZM54.425 142.39653L54.425 138.53716L51.7375 142.39653L54.425 142.39653ZM58.6125 145.42778L58.6125 144.22466L59.815624 144.22466L59.815624 145.42778Q59.815624 146.08403 59.58125 146.49028Q59.346874 146.91216 58.846874 147.1309L58.55 146.67778Q58.878124 146.53716 59.034374 146.24028Q59.190624 145.95903 59.221874 145.42778L58.6125 145.42778ZM61.05 141.1934Q61.05 139.66216 61.3625 138.74028Q61.675 137.80278 62.284374 137.30278Q62.909374 136.80278 63.846874 136.80278Q64.53438 136.80278 65.05 137.08403Q65.58125 137.36528 65.925 137.89653Q66.26875 138.41216 66.45625 139.16216Q66.64375 139.91216 66.64375 141.1934Q66.64375 142.70903 66.33125 143.6309Q66.03438 144.55278 65.40938 145.0684Q64.8 145.5684 63.846874 145.5684Q62.6125 145.5684 61.89375 144.67778Q61.05 143.61528 61.05 141.1934ZM62.128124 141.1934Q62.128124 143.30278 62.628124 144.0059Q63.128124 144.70903 63.846874 144.70903Q64.58125 144.70903 65.06563 144.0059Q65.56563 143.30278 65.56563 141.1934Q65.56563 139.0684 65.06563 138.3809Q64.58125 137.67778 63.83125 137.67778Q63.1125 137.67778 62.675 138.28716Q62.128124 139.0684 62.128124 141.1934ZM68.05 141.1934Q68.05 139.66216 68.3625 138.74028Q68.675 137.80278 69.28438 137.30278Q69.90938 136.80278 70.84688 136.80278Q71.53438 136.80278 72.05 137.08403Q72.58125 137.36528 72.925 137.89653Q73.26875 138.41216 73.45625 139.16216Q73.64375 139.91216 73.64375 141.1934Q73.64375 142.70903 73.33125 143.6309Q73.03438 144.55278 72.40938 145.0684Q71.8 145.5684 70.84688 145.5684Q69.6125 145.5684 68.89375 144.67778Q68.05 143.61528 68.05 141.1934ZM69.12813 141.1934Q69.12813 143.30278 69.62813 144.0059Q70.12813 144.70903 70.84688 144.70903Q71.58125 144.70903 72.06563 144.0059Q72.56563 143.30278 72.56563 141.1934Q72.56563 139.0684 72.06563 138.3809Q71.58125 137.67778 70.83125 137.67778Q70.1125 137.67778 69.675 138.28716Q69.12813 139.0684 69.12813 141.1934ZM75.05 141.1934Q75.05 139.66216 75.3625 138.74028Q75.675 137.80278 76.28438 137.30278Q76.90938 136.80278 77.84688 136.80278Q78.53438 136.80278 79.05 137.08403Q79.58125 137.36528 79.925 137.89653Q80.26875 138.41216 80.45625 139.16216Q80.64375 139.91216 80.64375 141.1934Q80.64375 142.70903 80.33125 143.6309Q80.03438 144.55278 79.40938 145.0684Q78.8 145.5684 77.84688 145.5684Q76.6125 145.5684 75.89375 144.67778Q75.05 143.61528 75.05 141.1934ZM76.12813 141.1934Q76.12813 143.30278 76.62813 144.0059Q77.12813 144.70903 77.84688 144.70903Q78.58125 144.70903 79.06563 144.0059Q79.56563 143.30278 79.56563 141.1934Q79.56563 139.0684 79.06563 138.3809Q78.58125 137.67778 77.83125 137.67778Q77.1125 137.67778 76.675 138.28716Q76.12813 139.0684 76.12813 141.1934ZM82.6125 145.42778L82.6125 144.22466L83.81563 144.22466L83.81563 145.42778Q83.81563 146.08403 83.58125 146.49028Q83.34688 146.91216 82.84688 147.1309L82.55 146.67778Q82.87813 146.53716 83.03438 146.24028Q83.19063 145.95903 83.22188 145.42778L82.6125 145.42778ZM85.05 141.1934Q85.05 139.66216 85.3625 138.74028Q85.675 137.80278 86.28438 137.30278Q86.90938 136.80278 87.84688 136.80278Q88.53438 136.80278 89.05 137.08403Q89.58125 137.36528 89.925 137.89653Q90.26875 138.41216 90.45625 139.16216Q90.64375 139.91216 90.64375 141.1934Q90.64375 142.70903 90.33125 143.6309Q90.03438 144.55278 89.40938 145.0684Q88.8 145.5684 87.84688 145.5684Q86.6125 145.5684 85.89375 144.67778Q85.05 143.61528 85.05 141.1934ZM86.12813 141.1934Q86.12813 143.30278 86.62813 144.0059Q87.12813 144.70903 87.84688 144.70903Q88.58125 144.70903 89.06563 144.0059Q89.56563 143.30278 89.56563 141.1934Q89.56563 139.0684 89.06563 138.3809Q88.58125 137.67778 87.83125 137.67778Q87.1125 137.67778 86.675 138.28716Q86.12813 139.0684 86.12813 141.1934ZM92.05 141.1934Q92.05 139.66216 92.3625 138.74028Q92.675 137.80278 93.28438 137.30278Q93.90938 136.80278 94.84688 136.80278Q95.53438 136.80278 96.05 137.08403Q96.58125 137.36528 96.925 137.89653Q97.26875 138.41216 97.45625 139.16216Q97.64375 139.91216 97.64375 141.1934Q97.64375 142.70903 97.33125 143.6309Q97.03438 144.55278 96.40938 145.0684Q95.8 145.5684 94.84688 145.5684Q93.6125 145.5684 92.89375 144.67778Q92.05 143.61528 92.05 141.1934ZM93.12813 141.1934Q93.12813 143.30278 93.62813 144.0059Q94.12813 144.70903 94.84688 144.70903Q95.58125 144.70903 96.06563 144.0059Q96.56563 143.30278 96.56563 141.1934Q96.56563 139.0684 96.06563 138.3809Q95.58125 137.67778 94.83125 137.67778Q94.1125 137.67778 93.675 138.28716Q93.12813 139.0684 93.12813 141.1934ZM99.05 141.1934Q99.05 139.66216 99.3625 138.74028Q99.675 137.80278 100.28438 137.30278Q100.90938 136.80278 101.84688 136.80278Q102.53438 136.80278 103.05 137.08403Q103.58125 137.36528 103.925 137.89653Q104.26875 138.41216 104.45625 139.16216Q104.64375 139.91216 104.64375 141.1934Q104.64375 142.70903 104.33125 143.6309Q104.03438 144.55278 103.40938 145.0684Q102.8 145.5684 101.84688 145.5684Q100.6125 145.5684 99.89375 144.67778Q99.05 143.61528 99.05 141.1934ZM100.12813 141.1934Q100.12813 143.30278 100.62813 144.0059Q101.12813 144.70903 101.84688 144.70903Q102.58125 144.70903 103.06563 144.0059Q103.56563 143.30278 103.56563 141.1934Q103.56563 139.0684 103.06563 138.3809Q102.58125 137.67778 101.83125 137.67778Q101.1125 137.67778 100.675 138.28716Q100.12813 139.0684 100.12813 141.1934Z" fill-rule="nonzero"/><path fill="#000000" d="M56.51875 59.43229L55.471874 59.510414Q55.33125 58.885414 55.08125 58.604164Q54.64375 58.15104 54.01875 58.15104Q53.51875 58.15104 53.128124 58.43229Q52.64375 58.80729 52.346874 59.510414Q52.065624 60.197914 52.05 61.479164Q52.425 60.90104 52.971874 60.61979Q53.534374 60.33854 54.14375 60.33854Q55.190624 60.33854 55.925 61.11979Q56.675 61.90104 56.675 63.11979Q56.675 63.93229 56.315624 64.635414Q55.971874 65.322914 55.3625 65.697914Q54.753124 66.05729 53.9875 66.05729Q52.659374 66.05729 51.83125 65.08854Q51.003124 64.11979 51.003124 61.90104Q51.003124 59.40104 51.925 58.27604Q52.721874 57.291664 54.08125 57.291664Q55.096874 57.291664 55.7375 57.86979Q56.39375 58.43229 56.51875 59.43229ZM52.221874 63.135414Q52.221874 63.68229 52.440624 64.18229Q52.675 64.666664 53.08125 64.93229Q53.503124 65.197914 53.971874 65.197914Q54.628124 65.197914 55.1125 64.666664Q55.596874 64.11979 55.596874 63.197914Q55.596874 62.30729 55.1125 61.791664Q54.64375 61.27604 53.925 61.27604Q53.20625 61.27604 52.70625 61.791664Q52.221874 62.30729 52.221874 63.135414ZM58.6125 65.916664L58.6125 64.71354L59.815624 64.71354L59.815624 65.916664Q59.815624 66.572914 59.58125 66.979164Q59.346874 67.40104 58.846874 67.61979L58.55 67.166664Q58.878124 67.02604 59.034374 66.729164Q59.190624 66.447914 59.221874 65.916664L58.6125 65.916664ZM61.05 61.68229Q61.05 60.15104 61.3625 59.229164Q61.675 58.291664 62.284374 57.791664Q62.909374 57.291664 63.846874 57.291664Q64.53438 57.291664 65.05 57.572914Q65.58125 57.854164 65.925 58.385414Q66.26875 58.90104 66.45625 59.65104Q66.64375 60.40104 66.64375 61.68229Q66.64375 63.197914 66.33125 64.11979Q66.03438 65.041664 65.40938 65.55729Q64.8 66.05729 63.846874 66.05729Q62.6125 66.05729 61.89375 65.166664Q61.05 64.104164 61.05 61.68229ZM62.128124 61.68229Q62.128124 63.791664 62.628124 64.49479Q63.128124 65.197914 63.846874 65.197914Q64.58125 65.197914 65.06563 64.49479Q65.56563 63.791664 65.56563 61.68229Q65.56563 59.55729 65.06563 58.86979Q64.58125 58.166664 63.83125 58.166664Q63.1125 58.166664 62.675 58.77604Q62.128124 59.55729 62.128124 61.68229ZM68.05 61.68229Q68.05 60.15104 68.3625 59.229164Q68.675 58.291664 69.28438 57.791664Q69.90938 57.291664 70.84688 57.291664Q71.53438 57.291664 72.05 57.572914Q72.58125 57.854164 72.925 58.385414Q73.26875 58.90104 73.45625 59.65104Q73.64375 60.40104 73.64375 61.68229Q73.64375 63.197914 73.33125 64.11979Q73.03438 65.041664 72.40938 65.55729Q71.8 66.05729 70.84688 66.05729Q69.6125 66.05729 68.89375 65.166664Q68.05 64.104164 68.05 61.68229ZM69.12813 61.68229Q69.12813 63.791664 69.62813 64.49479Q70.12813 65.197914 70.84688 65.197914Q71.58125 65.197914 72.06563 64.49479Q72.56563 63.791664 72.56563 61.68229Q72.56563 59.55729 72.06563 58.86979Q71.58125 58.166664 70.83125 58.166664Q70.1125 58.166664 69.675 58.77604Q69.12813 59.55729 69.12813 61.68229ZM75.05 61.68229Q75.05 60.15104 75.3625 59.229164Q75.675 58.291664 76.28438 57.791664Q76.90938 57.291664 77.84688 57.291664Q78.53438 57.291664 79.05 57.572914Q79.58125 57.854164 79.925 58.385414Q80.26875 58.90104 80.45625 59.65104Q80.64375 60.40104 80.64375 61.68229Q80.64375 63.197914 80.33125 64.11979Q80.03438 65.041664 79.40938 65.55729Q78.8 66.05729 77.84688 66.05729Q76.6125 66.05729 75.89375 65.166664Q75.05 64.104164 75.05 61.68229ZM76.12813 61.68229Q76.12813 63.791664 76.62813 64.49479Q77.12813 65.197914 77.84688 65.197914Q78.58125 65.197914 79.06563 64.49479Q79.56563 63.791664 79.56563 61.68229Q79.56563 59.55729 79.06563 58.86979Q78.58125 58.166664 77.83125 58.166664Q77.1125 58.166664 76.675 58.77604Q76.12813 59.55729 76.12813 61.68229ZM82.6125 65.916664L82.6125 64.71354L83.81563 64.71354L83.81563 65.916664Q83.81563 66.572914 83.58125 66.979164Q83.34688 67.40104 82.84688 67.61979L82.55 67.166664Q82.87813 67.02604 83.03438 66.729164Q83.19063 66.447914 83.22188 65.916664L82.6125 65.916664ZM85.05 61.68229Q85.05 60.15104 85.3625 59.229164Q85.675 58.291664 86.28438 57.791664Q86.90938 57.291664 87.84688 57.291664Q88.53438 57.291664 89.05 57.572914Q89.58125 57.854164 89.925 58.385414Q90.26875 58.90104 90.45625 59.65104Q90.64375 60.40104 90.64375 61.68229Q90.64375 63.197914 90.33125 64.11979Q90.03438 65.041664 89.40938 65.55729Q88.8 66.05729 87.84688 66.05729Q86.6125 66.05729 85.89375 65.166664Q85.05 64.104164 85.05 61.68229ZM86.12813 61.68229Q86.12813 63.791664 86.62813 64.49479Q87.12813 65.197914 87.84688 65.197914Q88.58125 65.197914 89.06563 64.49479Q89.56563 63.791664 89.56563 61.68229Q89.56563 59.55729 89.06563 58.86979Q88.58125 58.166664 87.83125 58.166664Q87.1125 58.166664 86.675 58.77604Q86.12813 59.55729 86.12813 61.68229ZM92.05 61.68229Q92.05 60.15104 92.3625 59.229164Q92.675 58.291664 93.28438 57.791664Q93.90938 57.291664 94.84688 57.291664Q95.53438 57.291664 96.05 57.572914Q96.58125 57.854164 96.925 58.385414Q97.26875 58.90104 97.45625 59.65104Q97.64375 60.40104 97.64375 61.68229Q97.64375 63.197914 97.33125 64.11979Q97.03438 65.041664 96.40938 65.55729Q95.8 66.05729 94.84688 66.05729Q93.6125 66.05729 92.89375 65.166664Q92.05 64.104164 92.05 61.68229ZM93.12813 61.68229Q93.12813 63.791664 93.62813 64.49479Q94.12813 65.197914 94.84688 65.197914Q95.58125 65.197914 96.06563 64.49479Q96.56563 63.791664 96.56563 61.68229Q96.56563 59.55729 96.06563 58.86979Q95.58125 58.166664 94.83125 58.166664Q94.1125 58.166664 93.675 58.77604Q93.12813 59.55729 93.12813 61.68229ZM99.05 61.68229Q99.05 60.15104 99.3625 59.229164Q99.675 58.291664 100.28438 57.791664Q100.90938 57.291664 101.84688 57.291664Q102.53438 57.291664 103.05 57.572914Q103.58125 57.854164 103.925 58.385414Q104.26875 58.90104 104.45625 59.65104Q104.64375 60.40104 104.64375 61.68229Q104.64375 63.197914 104.33125 64.11979Q104.03438 65.041664 103.40938 65.55729Q102.8 66.05729 101.84688 66.05729Q100.6125 66.05729 99.89375 65.166664Q99.05 64.104164 99.05 61.68229ZM100.12813 61.68229Q100.12813 63.791664 100.62813 64.49479Q101.12813 65.197914 101.84688 65.197914Q102.58125 65.197914 103.06563 64.49479Q103.56563 63.791664 103.56563 61.68229Q103.56563 59.55729 103.06563 58.86979Q102.58125 58.166664 101.83125 58.166664Q101.1125 58.166664 100.675 58.77604Q100.12813 59.55729 100.12813 61.68229Z" fill-rule="nonzero"/><path fill="#000000" d="M143.1644 317.45L142.11752 317.45L142.11752 310.73126Q141.7269 311.09064 141.1019 311.46564Q140.49252 311.825 140.00815 311.9969L140.00815 310.98126Q140.88315 310.5594 141.5394 309.98126Q142.21127 309.3875 142.49252 308.825L143.1644 308.825L143.1644 317.45Z" fill-rule="nonzero"/><path fill="#000000" d="M190.1435 316.4344L190.1435 317.45L184.456 317.45Q184.456 317.075 184.581 316.71564Q184.79974 316.1375 185.2685 315.575Q185.75287 315.0125 186.65912 314.27814Q188.06537 313.1219 188.54974 312.45Q189.04974 311.77814 189.04974 311.1844Q189.04974 310.5594 188.59662 310.1375Q188.1435 309.7 187.42474 309.7Q186.65912 309.7 186.206 310.15314Q185.75287 310.60626 185.73724 311.41876L184.65912 311.3094Q184.7685 310.09064 185.48724 309.46564Q186.22162 308.825 187.456 308.825Q188.69037 308.825 189.40912 309.5125Q190.12787 310.2 190.12787 311.21564Q190.12787 311.73126 189.90912 312.23126Q189.706 312.71564 189.206 313.27814Q188.72162 313.825 187.59662 314.77814Q186.6435 315.575 186.36224 315.8719Q186.09662 316.15314 185.92474 316.4344L190.1435 316.4344Z" fill-rule="nonzero"/><path fill="#000000" d="M229.99759 315.1844L231.06009 315.04376Q231.23196 315.9344 231.66946 316.34064Q232.10696 316.73126 232.73196 316.73126Q233.48196 316.73126 233.99759 316.21564Q234.51321 315.7 234.51321 314.9344Q234.51321 314.21564 234.02884 313.7469Q233.56009 313.2625 232.82571 313.2625Q232.52884 313.2625 232.07571 313.3875L232.20071 312.45Q232.31009 312.46564 232.37259 312.46564Q233.04446 312.46564 233.57571 312.1219Q234.12259 311.7625 234.12259 311.02814Q234.12259 310.45 233.73196 310.075Q233.34134 309.6844 232.71634 309.6844Q232.10696 309.6844 231.68509 310.075Q231.27884 310.46564 231.16946 311.23126L230.10696 311.04376Q230.29446 309.9969 230.98196 309.41876Q231.66946 308.825 232.68509 308.825Q233.38821 308.825 233.98196 309.1375Q234.57571 309.4344 234.88821 309.95Q235.20071 310.46564 235.20071 311.0594Q235.20071 311.60626 234.90384 312.075Q234.60696 312.52814 234.02884 312.79376Q234.77884 312.96564 235.20071 313.52814Q235.62259 314.075 235.62259 314.91876Q235.62259 316.04376 234.79446 316.825Q233.98196 317.60626 232.73196 317.60626Q231.60696 317.60626 230.85696 316.9344Q230.10696 316.2469 229.99759 315.1844Z" fill-rule="nonzero"/><path fill="#000000" d="M278.77356 317.45L278.77356 315.3875L275.0548 315.3875L275.0548 314.41876L278.97668 308.85626L279.83606 308.85626L279.83606 314.41876L280.9923 314.41876L280.9923 315.3875L279.83606 315.3875L279.83606 317.45L278.77356 317.45ZM278.77356 314.41876L278.77356 310.5594L276.08606 314.41876L278.77356 314.41876Z" fill-rule="nonzero"/><path fill="#000000" d="M320.79953 315.2L321.9089 315.10626Q322.0339 315.91876 322.4714 316.325Q322.92453 316.73126 323.56516 316.73126Q324.31516 316.73126 324.8464 316.15314Q325.37766 315.575 325.37766 314.6375Q325.37766 313.73126 324.86203 313.21564Q324.36203 312.6844 323.5339 312.6844Q323.0339 312.6844 322.61203 312.91876Q322.20578 313.15314 321.9714 313.5125L320.98703 313.3875L321.81516 308.98126L326.0964 308.98126L326.0964 309.98126L322.6589 309.98126L322.20578 312.29376Q322.9714 311.7469 323.81516 311.7469Q324.94016 311.7469 325.70578 312.52814Q326.48703 313.3094 326.48703 314.54376Q326.48703 315.7 325.81516 316.5594Q324.98703 317.59064 323.56516 317.59064Q322.39328 317.59064 321.64328 316.9344Q320.9089 316.27814 320.79953 315.2Z" fill-rule="nonzero"/><path fill="#000000" d="M371.66922 310.96564L370.62234 311.04376Q370.48172 310.41876 370.23172 310.1375Q369.79422 309.6844 369.16922 309.6844Q368.66922 309.6844 368.2786 309.96564Q367.79422 310.34064 367.49734 311.04376Q367.2161 311.73126 367.20047 313.0125Q367.57547 312.4344 368.12234 312.15314Q368.68484 311.8719 369.29422 311.8719Q370.3411 311.8719 371.07547 312.65314Q371.82547 313.4344 371.82547 314.65314Q371.82547 315.46564 371.4661 316.16876Q371.12234 316.85626 370.51297 317.23126Q369.9036 317.59064 369.13797 317.59064Q367.80984 317.59064 366.98172 316.6219Q366.1536 315.65314 366.1536 313.4344Q366.1536 310.9344 367.07547 309.8094Q367.87234 308.825 369.23172 308.825Q370.24734 308.825 370.88797 309.40314Q371.54422 309.96564 371.66922 310.96564ZM367.37234 314.66876Q367.37234 315.21564 367.5911 315.71564Q367.82547 316.2 368.23172 316.46564Q368.6536 316.73126 369.12234 316.73126Q369.7786 316.73126 370.26297 316.2Q370.74734 315.65314 370.74734 314.73126Q370.74734 313.84064 370.26297 313.325Q369.79422 312.8094 369.07547 312.8094Q368.35672 312.8094 367.85672 313.325Q367.37234 313.84064 367.37234 314.66876Z" fill-rule="nonzero"/><path fill="#000000" d="M411.66394 309.98126L411.66394 308.96564L417.22644 308.96564L417.22644 309.79376Q416.41394 310.66876 415.60144 312.1219Q414.80457 313.5594 414.36707 315.09064Q414.03894 316.16876 413.96082 317.45L412.86707 317.45Q412.8827 316.4344 413.2577 314.9969Q413.64832 313.5594 414.35144 312.23126Q415.0702 310.90314 415.8827 309.98126L411.66394 309.98126Z" fill-rule="nonzero"/><path fill="#000000" d="M458.6274 312.79376Q457.97116 312.54376 457.64304 312.10626Q457.33054 311.65314 457.33054 311.04376Q457.33054 310.10626 458.0024 309.46564Q458.6899 308.825 459.7993 308.825Q460.9243 308.825 461.6118 309.48126Q462.2993 310.1375 462.2993 311.075Q462.2993 311.66876 461.9868 312.10626Q461.6743 312.54376 461.03366 312.79376Q461.83054 313.04376 462.2368 313.6219Q462.64304 314.2 462.64304 314.9969Q462.64304 316.09064 461.8618 316.84064Q461.09616 317.59064 459.8149 317.59064Q458.5493 317.59064 457.76804 316.84064Q456.9868 316.09064 456.9868 314.96564Q456.9868 314.1219 457.40866 313.5594Q457.84616 312.9969 458.6274 312.79376ZM458.40866 310.9969Q458.40866 311.60626 458.7993 311.9969Q459.20554 312.3875 459.83054 312.3875Q460.4399 312.3875 460.83054 312.0125Q461.22116 311.6219 461.22116 311.0594Q461.22116 310.48126 460.8149 310.09064Q460.40866 309.6844 459.8149 309.6844Q459.20554 309.6844 458.7993 310.075Q458.40866 310.46564 458.40866 310.9969ZM458.08054 314.96564Q458.08054 315.41876 458.28366 315.84064Q458.5024 316.2625 458.9243 316.4969Q459.34616 316.73126 459.83054 316.73126Q460.58054 316.73126 461.0649 316.2469Q461.5649 315.7625 461.5649 315.0125Q461.5649 314.2469 461.0649 313.7469Q460.5649 313.2469 459.7993 313.2469Q459.0493 313.2469 458.5649 313.7469Q458.08054 314.23126 458.08054 314.96564Z" fill-rule="nonzero"/><path fill="#000000" d="M502.55963 315.46564L503.57526 315.3719Q503.70026 316.09064 504.05963 316.41876Q504.43463 316.73126 504.99713 316.73126Q505.4815 316.73126 505.84088 316.5125Q506.21588 316.27814 506.45026 315.91876Q506.68463 315.54376 506.84088 314.91876Q506.99713 314.27814 506.99713 313.6219Q506.99713 313.54376 506.99713 313.40314Q506.68463 313.90314 506.13776 314.23126Q505.59088 314.54376 504.95026 314.54376Q503.87213 314.54376 503.13776 313.77814Q502.40338 312.9969 502.40338 311.73126Q502.40338 310.41876 503.169 309.6219Q503.95026 308.825 505.1065 308.825Q505.93463 308.825 506.62213 309.27814Q507.32526 309.73126 507.68463 310.575Q508.044 311.40314 508.044 312.98126Q508.044 314.6219 507.68463 315.60626Q507.34088 316.575 506.62213 317.09064Q505.919 317.59064 504.9815 317.59064Q503.96588 317.59064 503.32526 317.04376Q502.68463 316.48126 502.55963 315.46564ZM506.87213 311.66876Q506.87213 310.7625 506.38776 310.23126Q505.919 309.7 505.2315 309.7Q504.52838 309.7 503.99713 310.27814Q503.4815 310.84064 503.4815 311.7625Q503.4815 312.575 503.9815 313.09064Q504.4815 313.60626 505.20026 313.60626Q505.93463 313.60626 506.40338 313.09064Q506.87213 312.575 506.87213 311.66876Z" fill-rule="nonzero"/><path fill="#000000" d="M548.2731 317.45L547.2262 317.45L547.2262 310.73126Q546.8356 311.09064 546.2106 311.46564Q545.6012 311.825 545.1168 311.9969L545.1168 310.98126Q545.9918 310.5594 546.6481 309.98126Q547.31995 309.3875 547.6012 308.825L548.2731 308.825L548.2731 317.45ZM551.3043 313.21564Q551.3043 311.6844 551.6168 310.7625Q551.9293 309.825 552.5387 309.325Q553.1637 308.825 554.1012 308.825Q554.7887 308.825 555.3043 309.10626Q555.8356 309.3875 556.1793 309.91876Q556.5231 310.4344 556.7106 311.1844Q556.8981 311.9344 556.8981 313.21564Q556.8981 314.73126 556.5856 315.65314Q556.2887 316.575 555.6637 317.09064Q555.0543 317.59064 554.1012 317.59064Q552.8668 317.59064 552.1481 316.7Q551.3043 315.6375 551.3043 313.21564ZM552.38245 313.21564Q552.38245 315.325 552.88245 316.02814Q553.38245 316.73126 554.1012 316.73126Q554.8356 316.73126 555.31995 316.02814Q555.81995 315.325 555.81995 313.21564Q555.81995 311.09064 555.31995 310.40314Q554.8356 309.7 554.0856 309.7Q553.3668 309.7 552.9293 310.3094Q552.38245 311.09064 552.38245 313.21564Z" fill-rule="nonzero"/><path fill="#757575" d="M26.8 31.940624L26.8 30.253124L32.8625 30.2375L32.8625 35.55Q31.45625 36.675 29.971874 37.2375Q28.4875 37.8 26.925 37.8Q24.815624 37.8 23.096874 36.89375Q21.378124 35.9875 20.4875 34.284374Q19.6125 32.565624 19.6125 30.45625Q19.6125 28.3625 20.4875 26.565624Q21.3625 24.753124 23.003124 23.878124Q24.64375 22.9875 26.784374 22.9875Q28.33125 22.9875 29.58125 23.4875Q30.846874 23.9875 31.55 24.89375Q32.26875 25.784374 32.64375 27.2375L30.940624 27.70625Q30.6125 26.6125 30.128124 25.9875Q29.659374 25.3625 28.76875 24.9875Q27.878124 24.6125 26.8 24.6125Q25.4875 24.6125 24.534374 25.003124Q23.596874 25.39375 23.01875 26.05Q22.440624 26.690624 22.1125 27.45625Q21.565624 28.784374 21.565624 30.346874Q21.565624 32.253124 22.221874 33.55Q22.89375 34.83125 24.14375 35.45625Q25.409374 36.08125 26.815624 36.08125Q28.05 36.08125 29.221874 35.6125Q30.39375 35.14375 31.003124 34.596874L31.003124 31.940624L26.8 31.940624ZM42.971874 34.20625L44.784374 34.440624Q44.3625 36.01875 43.190624 36.909374Q42.034374 37.784374 40.221874 37.784374Q37.95625 37.784374 36.6125 36.39375Q35.284374 34.9875 35.284374 32.45625Q35.284374 29.83125 36.628124 28.39375Q37.971874 26.940624 40.128124 26.940624Q42.20625 26.940624 43.51875 28.3625Q44.846874 29.76875 44.846874 32.346874Q44.846874 32.503124 44.83125 32.815624L37.096874 32.815624Q37.190624 34.51875 38.065624 35.425Q38.940624 36.33125 40.2375 36.33125Q41.20625 36.33125 41.878124 35.83125Q42.565624 35.315624 42.971874 34.20625ZM37.190624 31.3625L42.9875 31.3625Q42.878124 30.065624 42.33125 29.409374Q41.4875 28.39375 40.14375 28.39375Q38.940624 28.39375 38.1125 29.20625Q37.284374 30.003124 37.190624 31.3625ZM46.8625 37.55L46.8625 27.175L48.45625 27.175L48.45625 28.659374Q49.596874 26.940624 51.753124 26.940624Q52.690624 26.940624 53.471874 27.284374Q54.26875 27.6125 54.659374 28.159374Q55.05 28.70625 55.20625 29.45625Q55.3 29.95625 55.3 31.175L55.3 37.55L53.534374 37.55L53.534374 31.2375Q53.534374 30.159374 53.33125 29.628124Q53.128124 29.096874 52.596874 28.784374Q52.08125 28.471874 51.378124 28.471874Q50.253124 28.471874 49.440624 29.190624Q48.628124 29.89375 48.628124 31.878124L48.628124 37.55L46.8625 37.55ZM63.971874 34.20625L65.78438 34.440624Q65.3625 36.01875 64.19063 36.909374Q63.034374 37.784374 61.221874 37.784374Q58.95625 37.784374 57.6125 36.39375Q56.284374 34.9875 56.284374 32.45625Q56.284374 29.83125 57.628124 28.39375Q58.971874 26.940624 61.128124 26.940624Q63.20625 26.940624 64.51875 28.3625Q65.84688 29.76875 65.84688 32.346874Q65.84688 32.503124 65.83125 32.815624L58.096874 32.815624Q58.190624 34.51875 59.065624 35.425Q59.940624 36.33125 61.2375 36.33125Q62.20625 36.33125 62.878124 35.83125Q63.565624 35.315624 63.971874 34.20625ZM58.190624 31.3625L63.9875 31.3625Q63.878124 30.065624 63.33125 29.409374Q62.4875 28.39375 61.14375 28.39375Q59.940624 28.39375 59.1125 29.20625Q58.284374 30.003124 58.190624 31.3625ZM67.84688 37.55L67.84688 27.175L69.425 27.175L69.425 28.753124Q70.03438 27.64375 70.55 27.3Q71.06563 26.940624 71.675 26.940624Q72.56563 26.940624 73.4875 27.503124L72.87813 29.14375Q72.2375 28.753124 71.59688 28.753124Q71.01875 28.753124 70.55 29.1125Q70.09688 29.45625 69.89375 30.065624Q69.6125 31.003124 69.6125 32.1125L69.6125 37.55L67.84688 37.55ZM81.64375 36.26875Q80.65938 37.096874 79.75313 37.440624Q78.84688 37.784374 77.81563 37.784374Q76.1125 37.784374 75.19063 36.95625Q74.26875 36.1125 74.26875 34.815624Q74.26875 34.05 74.6125 33.425Q74.97188 32.8 75.53438 32.425Q76.09688 32.034374 76.8 31.83125Q77.31563 31.70625 78.3625 31.565624Q80.4875 31.315624 81.4875 30.971874Q81.50313 30.6125 81.50313 30.503124Q81.50313 29.440624 81.00313 28.9875Q80.33125 28.39375 79.00313 28.39375Q77.75313 28.39375 77.15938 28.83125Q76.58125 29.26875 76.3 30.378124L74.58125 30.14375Q74.81563 29.034374 75.34688 28.3625Q75.87813 27.675 76.89375 27.315624Q77.90938 26.940624 79.25313 26.940624Q80.58125 26.940624 81.40938 27.253124Q82.2375 27.565624 82.62813 28.05Q83.01875 28.51875 83.175 29.2375Q83.26875 29.690624 83.26875 30.8625L83.26875 33.20625Q83.26875 35.659374 83.37813 36.315624Q83.4875 36.95625 83.83125 37.55L81.9875 37.55Q81.72188 37.003124 81.64375 36.26875ZM81.4875 32.346874Q80.53438 32.7375 78.6125 33.003124Q77.53438 33.159374 77.08125 33.3625Q76.64375 33.55 76.39375 33.925Q76.14375 34.3 76.14375 34.76875Q76.14375 35.471874 76.675 35.940624Q77.20625 36.409374 78.2375 36.409374Q79.25313 36.409374 80.03438 35.971874Q80.83125 35.51875 81.20625 34.753124Q81.4875 34.14375 81.4875 32.9875L81.4875 32.346874ZM89.70625 35.971874L89.95625 37.534374Q89.22188 37.690624 88.62813 37.690624Q87.675 37.690624 87.14375 37.39375Q86.62813 37.08125 86.40938 36.596874Q86.19063 36.096874 86.19063 34.51875L86.19063 28.55L84.90938 28.55L84.90938 27.175L86.19063 27.175L86.19063 24.6125L87.94063 23.55L87.94063 27.175L89.70625 27.175L89.70625 28.55L87.94063 28.55L87.94063 34.6125Q87.94063 35.3625 88.03438 35.58125Q88.12813 35.784374 88.33125 35.925Q88.55 36.05 88.94063 36.05Q89.22188 36.05 89.70625 35.971874ZM98.97188 34.20625L100.78438 34.440624Q100.3625 36.01875 99.19063 36.909374Q98.03438 37.784374 96.22188 37.784374Q93.95625 37.784374 92.6125 36.39375Q91.28438 34.9875 91.28438 32.45625Q91.28438 29.83125 92.62813 28.39375Q93.97188 26.940624 96.12813 26.940624Q98.20625 26.940624 99.51875 28.3625Q100.84688 29.76875 100.84688 32.346874Q100.84688 32.503124 100.83125 32.815624L93.09688 32.815624Q93.19063 34.51875 94.06563 35.425Q94.94063 36.33125 96.2375 36.33125Q97.20625 36.33125 97.87813 35.83125Q98.56563 35.315624 98.97188 34.20625ZM93.19063 31.3625L98.9875 31.3625Q98.87813 30.065624 98.33125 29.409374Q97.4875 28.39375 96.14375 28.39375Q94.94063 28.39375 94.1125 29.20625Q93.28438 30.003124 93.19063 31.3625ZM109.59688 37.55L109.59688 36.2375Q108.6125 37.784374 106.69063 37.784374Q105.45625 37.784374 104.40938 37.096874Q103.37813 36.409374 102.8 35.190624Q102.2375 33.971874 102.2375 32.378124Q102.2375 30.815624 102.75313 29.55Q103.26875 28.284374 104.3 27.6125Q105.34688 26.940624 106.6125 26.940624Q107.55 26.940624 108.28438 27.346874Q109.01875 27.7375 109.4875 28.3625L109.4875 23.2375L111.22188 23.2375L111.22188 37.55L109.59688 37.55ZM104.03438 32.378124Q104.03438 34.3625 104.87813 35.346874Q105.72188 36.33125 106.8625 36.33125Q108.01875 36.33125 108.81563 35.39375Q109.62813 34.45625 109.62813 32.51875Q109.62813 30.39375 108.8 29.39375Q107.9875 28.39375 106.78438 28.39375Q105.6125 28.39375 104.81563 29.3625Q104.03438 30.315624 104.03438 32.378124ZM120.12813 37.55L120.12813 23.2375L130.4875 23.2375L130.4875 24.925L122.03438 24.925L122.03438 29.3L129.94063 29.3L129.94063 30.9875L122.03438 30.9875L122.03438 35.8625L130.81563 35.8625L130.81563 37.55L120.12813 37.55ZM135.75313 37.55L131.8 27.175L133.65938 27.175L135.89375 33.39375Q136.25313 34.39375 136.55 35.471874Q136.78438 34.659374 137.20625 33.503124L139.50313 27.175L141.31563 27.175L137.39375 37.55L135.75313 37.55ZM148.97188 34.20625L150.78438 34.440624Q150.3625 36.01875 149.19063 36.909374Q148.03438 37.784374 146.22188 37.784374Q143.95625 37.784374 142.6125 36.39375Q141.28438 34.9875 141.28438 32.45625Q141.28438 29.83125 142.62813 28.39375Q143.97188 26.940624 146.12813 26.940624Q148.20625 26.940624 149.51875 28.3625Q150.84688 29.76875 150.84688 32.346874Q150.84688 32.503124 150.83125 32.815624L143.09688 32.815624Q143.19063 34.51875 144.06563 35.425Q144.94063 36.33125 146.2375 36.33125Q147.20625 36.33125 147.87813 35.83125Q148.56563 35.315624 148.97188 34.20625ZM143.19063 31.3625L148.9875 31.3625Q148.87813 30.065624 148.33125 29.409374Q147.4875 28.39375 146.14375 28.39375Q144.94063 28.39375 144.1125 29.20625Q143.28438 30.003124 143.19063 31.3625ZM152.8625 37.55L152.8625 27.175L154.45625 27.175L154.45625 28.659374Q155.59688 26.940624 157.75313 26.940624Q158.69063 26.940624 159.47188 27.284374Q160.26875 27.6125 160.65938 28.159374Q161.05 28.70625 161.20625 29.45625Q161.3 29.95625 161.3 31.175L161.3 37.55L159.53438 37.55L159.53438 31.2375Q159.53438 30.159374 159.33125 29.628124Q159.12813 29.096874 158.59688 28.784374Q158.08125 28.471874 157.37813 28.471874Q156.25313 28.471874 155.44063 29.190624Q154.62813 29.89375 154.62813 31.878124L154.62813 37.55L152.8625 37.55ZM166.70625 35.971874L166.95625 37.534374Q166.22188 37.690624 165.62813 37.690624Q164.675 37.690624 164.14375 37.39375Q163.62813 37.08125 163.40938 36.596874Q163.19063 36.096874 163.19063 34.51875L163.19063 28.55L161.90938 28.55L161.90938 27.175L163.19063 27.175L163.19063 24.6125L164.94063 23.55L164.94063 27.175L166.70625 27.175L166.70625 28.55L164.94063 28.55L164.94063 34.6125Q164.94063 35.3625 165.03438 35.58125Q165.12813 35.784374 165.33125 35.925Q165.55 36.05 165.94063 36.05Q166.22188 36.05 166.70625 35.971874ZM175.12813 37.55L175.12813 23.2375L181.47188 23.2375Q183.37813 23.2375 184.37813 23.628124Q185.37813 24.003124 185.97188 24.9875Q186.56563 25.95625 186.56563 27.14375Q186.56563 28.659374 185.58125 29.70625Q184.59688 30.753124 182.53438 31.034374Q183.28438 31.39375 183.675 31.753124Q184.50313 32.503124 185.25313 33.659374L187.7375 37.55L185.3625 37.55L183.45625 34.565624Q182.62813 33.284374 182.09688 32.596874Q181.56563 31.909374 181.12813 31.64375Q180.70625 31.3625 180.26875 31.253124Q179.94063 31.190624 179.22188 31.190624L177.01875 31.190624L177.01875 37.55L175.12813 37.55ZM177.01875 29.55L181.09688 29.55Q182.39375 29.55 183.1125 29.284374Q183.84688 29.01875 184.22188 28.425Q184.6125 27.83125 184.6125 27.14375Q184.6125 26.128124 183.87813 25.471874Q183.14375 24.815624 181.55 24.815624L177.01875 24.815624L177.01875 29.55ZM195.64375 36.26875Q194.65938 37.096874 193.75313 37.440624Q192.84688 37.784374 191.81563 37.784374Q190.1125 37.784374 189.19063 36.95625Q188.26875 36.1125 188.26875 34.815624Q188.26875 34.05 188.6125 33.425Q188.97188 32.8 189.53438 32.425Q190.09688 32.034374 190.8 31.83125Q191.31563 31.70625 192.3625 31.565624Q194.4875 31.315624 195.4875 30.971874Q195.50313 30.6125 195.50313 30.503124Q195.50313 29.440624 195.00313 28.9875Q194.33125 28.39375 193.00313 28.39375Q191.75313 28.39375 191.15938 28.83125Q190.58125 29.26875 190.3 30.378124L188.58125 30.14375Q188.81563 29.034374 189.34688 28.3625Q189.87813 27.675 190.89375 27.315624Q191.90938 26.940624 193.25313 26.940624Q194.58125 26.940624 195.40938 27.253124Q196.2375 27.565624 196.62813 28.05Q197.01875 28.51875 197.175 29.2375Q197.26875 29.690624 197.26875 30.8625L197.26875 33.20625Q197.26875 35.659374 197.37813 36.315624Q197.4875 36.95625 197.83125 37.55L195.9875 37.55Q195.72188 37.003124 195.64375 36.26875ZM195.4875 32.346874Q194.53438 32.7375 192.6125 33.003124Q191.53438 33.159374 191.08125 33.3625Q190.64375 33.55 190.39375 33.925Q190.14375 34.3 190.14375 34.76875Q190.14375 35.471874 190.675 35.940624Q191.20625 36.409374 192.2375 36.409374Q193.25313 36.409374 194.03438 35.971874Q194.83125 35.51875 195.20625 34.753124Q195.4875 34.14375 195.4875 32.9875L195.4875 32.346874ZM203.70625 35.971874L203.95625 37.534374Q203.22188 37.690624 202.62813 37.690624Q201.675 37.690624 201.14375 37.39375Q200.62813 37.08125 200.40938 36.596874Q200.19063 36.096874 200.19063 34.51875L200.19063 28.55L198.90938 28.55L198.90938 27.175L200.19063 27.175L200.19063 24.6125L201.94063 23.55L201.94063 27.175L203.70625 27.175L203.70625 28.55L201.94063 28.55L201.94063 34.6125Q201.94063 35.3625 202.03438 35.58125Q202.12813 35.784374 202.33125 35.925Q202.55 36.05 202.94063 36.05Q203.22188 36.05 203.70625 35.971874ZM212.97188 34.20625L214.78438 34.440624Q214.3625 36.01875 213.19063 36.909374Q212.03438 37.784374 210.22188 37.784374Q207.95625 37.784374 206.6125 36.39375Q205.28438 34.9875 205.28438 32.45625Q205.28438 29.83125 206.62813 28.39375Q207.97188 26.940624 210.12813 26.940624Q212.20625 26.940624 213.51875 28.3625Q214.84688 29.76875 214.84688 32.346874Q214.84688 32.503124 214.83125 32.815624L207.09688 32.815624Q207.19063 34.51875 208.06563 35.425Q208.94063 36.33125 210.2375 36.33125Q211.20625 36.33125 211.87813 35.83125Q212.56563 35.315624 212.97188 34.20625ZM207.19063 31.3625L212.9875 31.3625Q212.87813 30.065624 212.33125 29.409374Q211.4875 28.39375 210.14375 28.39375Q208.94063 28.39375 208.1125 29.20625Q207.28438 30.003124 207.19063 31.3625ZM225.75313 37.55L221.8 27.175L223.65938 27.175L225.89375 33.39375Q226.25313 34.39375 226.55 35.471874Q226.78438 34.659374 227.20625 33.503124L229.50313 27.175L231.31563 27.175L227.39375 37.55L225.75313 37.55ZM231.15938 34.45625L232.90938 34.175Q233.05 35.221874 233.72188 35.784374Q234.39375 36.33125 235.59688 36.33125Q236.8 36.33125 237.37813 35.846874Q237.97188 35.346874 237.97188 34.690624Q237.97188 34.096874 237.45625 33.753124Q237.09688 33.51875 235.65938 33.159374Q233.72188 32.659374 232.97188 32.315624Q232.2375 31.95625 231.84688 31.33125Q231.45625 30.690624 231.45625 29.925Q231.45625 29.2375 231.76875 28.64375Q232.09688 28.05 232.64375 27.659374Q233.05 27.3625 233.75313 27.159374Q234.47188 26.940624 235.28438 26.940624Q236.50313 26.940624 237.425 27.3Q238.34688 27.64375 238.78438 28.253124Q239.22188 28.846874 239.39375 29.846874L237.675 30.08125Q237.55 29.284374 236.9875 28.846874Q236.425 28.39375 235.40938 28.39375Q234.19063 28.39375 233.675 28.8Q233.15938 29.190624 233.15938 29.721874Q233.15938 30.065624 233.37813 30.346874Q233.58125 30.628124 234.05 30.815624Q234.31563 30.909374 235.59688 31.253124Q237.47188 31.753124 238.20625 32.08125Q238.94063 32.39375 239.3625 33.003124Q239.78438 33.596874 239.78438 34.503124Q239.78438 35.378124 239.26875 36.159374Q238.75313 36.940624 237.78438 37.3625Q236.81563 37.784374 235.59688 37.784374Q233.58125 37.784374 232.51875 36.940624Q231.45625 36.096874 231.15938 34.45625ZM242.3625 37.55L242.3625 35.55L244.3625 35.55L244.3625 37.55L242.3625 37.55ZM254.08125 37.55L254.08125 23.2375L256.01874 23.2375L263.53436 34.471874L263.53436 23.2375L265.34686 23.2375L265.34686 37.55L263.40936 37.55L255.89375 26.3L255.89375 37.55L254.08125 37.55ZM273.65936 37.55L273.65936 36.01875Q272.45624 37.784374 270.3781 37.784374Q269.45624 37.784374 268.65936 37.440624Q267.8625 37.08125 267.47186 36.55Q267.09686 36.01875 266.9406 35.2375Q266.83124 34.721874 266.83124 33.596874L266.83124 27.175L268.58124 27.175L268.58124 32.925Q268.58124 34.3 268.6906 34.784374Q268.8625 35.471874 269.39374 35.878124Q269.9406 36.26875 270.72186 36.26875Q271.51874 36.26875 272.20624 35.8625Q272.90936 35.45625 273.1906 34.76875Q273.4875 34.065624 273.4875 32.7375L273.4875 27.175L275.2375 27.175L275.2375 37.55L273.65936 37.55ZM276.8625 37.55L276.8625 27.175L278.4406 27.175L278.4406 28.628124Q278.925 27.878124 279.7375 27.409374Q280.55 26.940624 281.58124 26.940624Q282.7375 26.940624 283.47186 27.425Q284.20624 27.89375 284.51874 28.753124Q285.7531 26.940624 287.72186 26.940624Q289.26874 26.940624 290.09686 27.8Q290.925 28.659374 290.925 30.425L290.925 37.55L289.175 37.55L289.175 31.01875Q289.175 29.95625 289.0031 29.503124Q288.83124 29.034374 288.3781 28.753124Q287.9406 28.471874 287.33124 28.471874Q286.2375 28.471874 285.5031 29.20625Q284.78436 29.925 284.78436 31.51875L284.78436 37.55L283.03436 37.55L283.03436 30.815624Q283.03436 29.64375 282.59686 29.065624Q282.175 28.471874 281.1906 28.471874Q280.45624 28.471874 279.8156 28.8625Q279.1906 29.253124 278.90936 30.003124Q278.6281 30.753124 278.6281 32.175L278.6281 37.55L276.8625 37.55ZM294.4875 37.55L292.8625 37.55L292.8625 23.2375L294.6125 23.2375L294.6125 28.346874Q295.7375 26.940624 297.45624 26.940624Q298.40936 26.940624 299.26874 27.33125Q300.1281 27.721874 300.675 28.425Q301.22186 29.1125 301.53436 30.096874Q301.84686 31.08125 301.84686 32.20625Q301.84686 34.878124 300.53436 36.33125Q299.22186 37.784374 297.3781 37.784374Q295.53436 37.784374 294.4875 36.253124L294.4875 37.55ZM294.47186 32.284374Q294.47186 34.14375 294.97186 34.9875Q295.8156 36.33125 297.22186 36.33125Q298.3781 36.33125 299.20624 35.33125Q300.05 34.33125 300.05 32.346874Q300.05 30.315624 299.2375 29.3625Q298.4406 28.39375 297.3 28.39375Q296.14374 28.39375 295.3 29.39375Q294.47186 30.39375 294.47186 32.284374ZM310.97186 34.20625L312.78436 34.440624Q312.3625 36.01875 311.1906 36.909374Q310.03436 37.784374 308.22186 37.784374Q305.95624 37.784374 304.6125 36.39375Q303.28436 34.9875 303.28436 32.45625Q303.28436 29.83125 304.6281 28.39375Q305.97186 26.940624 308.1281 26.940624Q310.20624 26.940624 311.51874 28.3625Q312.84686 29.76875 312.84686 32.346874Q312.84686 32.503124 312.83124 32.815624L305.09686 32.815624Q305.1906 34.51875 306.0656 35.425Q306.9406 36.33125 308.2375 36.33125Q309.20624 36.33125 309.8781 35.83125Q310.5656 35.315624 310.97186 34.20625ZM305.1906 31.3625L310.9875 31.3625Q310.8781 30.065624 310.33124 29.409374Q309.4875 28.39375 308.14374 28.39375Q306.9406 28.39375 306.1125 29.20625Q305.28436 30.003124 305.1906 31.3625ZM314.84686 37.55L314.84686 27.175L316.425 27.175L316.425 28.753124Q317.03436 27.64375 317.55 27.3Q318.0656 26.940624 318.675 26.940624Q319.5656 26.940624 320.4875 27.503124L319.8781 29.14375Q319.2375 28.753124 318.59686 28.753124Q318.01874 28.753124 317.55 29.1125Q317.09686 29.45625 316.89374 30.065624Q316.6125 31.003124 316.6125 32.1125L316.6125 37.55L314.84686 37.55ZM327.22186 32.3625Q327.22186 29.4875 328.8156 28.096874Q330.15936 26.940624 332.08124 26.940624Q334.22186 26.940624 335.5656 28.346874Q336.925 29.753124 336.925 32.221874Q336.925 34.221874 336.33124 35.378124Q335.7375 36.51875 334.58124 37.159374Q333.4406 37.784374 332.08124 37.784374Q329.89374 37.784374 328.55 36.39375Q327.22186 34.9875 327.22186 32.3625ZM329.01874 32.3625Q329.01874 34.3625 329.8781 35.346874Q330.7531 36.33125 332.08124 36.33125Q333.39374 36.33125 334.2531 35.346874Q335.1281 34.346874 335.1281 32.3Q335.1281 30.378124 334.2531 29.39375Q333.3781 28.39375 332.08124 28.39375Q330.7531 28.39375 329.8781 29.39375Q329.01874 30.378124 329.01874 32.3625ZM339.28436 37.55L339.28436 28.55L337.7375 28.55L337.7375 27.175L339.28436 27.175L339.28436 26.08125Q339.28436 25.034374 339.47186 24.51875Q339.72186 23.83125 340.3625 23.409374Q341.0031 22.9875 342.15936 22.9875Q342.90936 22.9875 343.8 23.159374L343.53436 24.690624Q342.9875 24.596874 342.5031 24.596874Q341.70624 24.596874 341.3625 24.940624Q341.03436 25.284374 341.03436 26.221874L341.03436 27.175L343.0656 27.175L343.0656 28.55L341.03436 28.55L341.03436 37.55L339.28436 37.55ZM350.15936 34.45625L351.90936 34.175Q352.05 35.221874 352.72186 35.784374Q353.39374 36.33125 354.59686 36.33125Q355.8 36.33125 356.3781 35.846874Q356.97186 35.346874 356.97186 34.690624Q356.97186 34.096874 356.45624 33.753124Q356.09686 33.51875 354.65936 33.159374Q352.72186 32.659374 351.97186 32.315624Q351.2375 31.95625 350.84686 31.33125Q350.45624 30.690624 350.45624 29.925Q350.45624 29.2375 350.76874 28.64375Q351.09686 28.05 351.64374 27.659374Q352.05 27.3625 352.7531 27.159374Q353.47186 26.940624 354.28436 26.940624Q355.5031 26.940624 356.425 27.3Q357.34686 27.64375 357.78436 28.253124Q358.22186 28.846874 358.39374 29.846874L356.675 30.08125Q356.55 29.284374 355.9875 28.846874Q355.425 28.39375 354.40936 28.39375Q353.1906 28.39375 352.675 28.8Q352.15936 29.190624 352.15936 29.721874Q352.15936 30.065624 352.3781 30.346874Q352.58124 30.628124 353.05 30.815624Q353.3156 30.909374 354.59686 31.253124Q356.47186 31.753124 357.20624 32.08125Q357.9406 32.39375 358.3625 33.003124Q358.78436 33.596874 358.78436 34.503124Q358.78436 35.378124 358.26874 36.159374Q357.7531 36.940624 356.78436 37.3625Q355.8156 37.784374 354.59686 37.784374Q352.58124 37.784374 351.51874 36.940624Q350.45624 36.096874 350.15936 34.45625ZM360.22186 32.3625Q360.22186 29.4875 361.8156 28.096874Q363.15936 26.940624 365.08124 26.940624Q367.22186 26.940624 368.5656 28.346874Q369.925 29.753124 369.925 32.221874Q369.925 34.221874 369.33124 35.378124Q368.7375 36.51875 367.58124 37.159374Q366.4406 37.784374 365.08124 37.784374Q362.89374 37.784374 361.55 36.39375Q360.22186 34.9875 360.22186 32.3625ZM362.01874 32.3625Q362.01874 34.3625 362.8781 35.346874Q363.7531 36.33125 365.08124 36.33125Q366.39374 36.33125 367.2531 35.346874Q368.1281 34.346874 368.1281 32.3Q368.1281 30.378124 367.2531 29.39375Q366.3781 28.39375 365.08124 28.39375Q363.7531 28.39375 362.8781 29.39375Q362.01874 30.378124 362.01874 32.3625ZM378.65936 37.55L378.65936 36.01875Q377.45624 37.784374 375.3781 37.784374Q374.45624 37.784374 373.65936 37.440624Q372.8625 37.08125 372.47186 36.55Q372.09686 36.01875 371.9406 35.2375Q371.83124 34.721874 371.83124 33.596874L371.83124 27.175L373.58124 27.175L373.58124 32.925Q373.58124 34.3 373.6906 34.784374Q373.8625 35.471874 374.39374 35.878124Q374.9406 36.26875 375.72186 36.26875Q376.51874 36.26875 377.20624 35.8625Q377.90936 35.45625 378.1906 34.76875Q378.4875 34.065624 378.4875 32.7375L378.4875 27.175L380.2375 27.175L380.2375 37.55L378.65936 37.55ZM381.84686 37.55L381.84686 27.175L383.425 27.175L383.425 28.753124Q384.03436 27.64375 384.55 27.3Q385.0656 26.940624 385.675 26.940624Q386.5656 26.940624 387.4875 27.503124L386.8781 29.14375Q386.2375 28.753124 385.59686 28.753124Q385.01874 28.753124 384.55 29.1125Q384.09686 29.45625 383.89374 30.065624Q383.6125 31.003124 383.6125 32.1125L383.6125 37.55L381.84686 37.55ZM395.64374 33.753124L397.3625 33.971874Q397.08124 35.76875 395.90936 36.784374Q394.7531 37.784374 393.05 37.784374Q390.925 37.784374 389.6281 36.39375Q388.33124 35.003124 388.33124 32.409374Q388.33124 30.721874 388.8781 29.471874Q389.4406 28.20625 390.58124 27.58125Q391.72186 26.940624 393.0656 26.940624Q394.7531 26.940624 395.8156 27.8Q396.89374 28.659374 397.20624 30.221874L395.4875 30.4875Q395.2531 29.440624 394.6281 28.925Q394.0031 28.39375 393.1281 28.39375Q391.8 28.39375 390.97186 29.346874Q390.14374 30.3 390.14374 32.346874Q390.14374 34.440624 390.9406 35.39375Q391.7375 36.33125 393.03436 36.33125Q394.0656 36.33125 394.7531 35.70625Q395.45624 35.065624 395.64374 33.753124ZM405.97186 34.20625L407.78436 34.440624Q407.3625 36.01875 406.1906 36.909374Q405.03436 37.784374 403.22186 37.784374Q400.95624 37.784374 399.6125 36.39375Q398.28436 34.9875 398.28436 32.45625Q398.28436 29.83125 399.6281 28.39375Q400.97186 26.940624 403.1281 26.940624Q405.20624 26.940624 406.51874 28.3625Q407.84686 29.76875 407.84686 32.346874Q407.84686 32.503124 407.83124 32.815624L400.09686 32.815624Q400.1906 34.51875 401.0656 35.425Q401.9406 36.33125 403.2375 36.33125Q404.20624 36.33125 404.8781 35.83125Q405.5656 35.315624 405.97186 34.20625ZM400.1906 31.3625L405.9875 31.3625Q405.8781 30.065624 405.33124 29.409374Q404.4875 28.39375 403.14374 28.39375Q401.9406 28.39375 401.1125 29.20625Q400.28436 30.003124 400.1906 31.3625ZM409.15936 34.45625L410.90936 34.175Q411.05 35.221874 411.72186 35.784374Q412.39374 36.33125 413.59686 36.33125Q414.8 36.33125 415.3781 35.846874Q415.97186 35.346874 415.97186 34.690624Q415.97186 34.096874 415.45624 33.753124Q415.09686 33.51875 413.65936 33.159374Q411.72186 32.659374 410.97186 32.315624Q410.2375 31.95625 409.84686 31.33125Q409.45624 30.690624 409.45624 29.925Q409.45624 29.2375 409.76874 28.64375Q410.09686 28.05 410.64374 27.659374Q411.05 27.3625 411.7531 27.159374Q412.47186 26.940624 413.28436 26.940624Q414.5031 26.940624 415.425 27.3Q416.34686 27.64375 416.78436 28.253124Q417.22186 28.846874 417.39374 29.846874L415.675 30.08125Q415.55 29.284374 414.9875 28.846874Q414.425 28.39375 413.40936 28.39375Q412.1906 28.39375 411.675 28.8Q411.15936 29.190624 411.15936 29.721874Q411.15936 30.065624 411.3781 30.346874Q411.58124 30.628124 412.05 30.815624Q412.3156 30.909374 413.59686 31.253124Q415.47186 31.753124 416.20624 32.08125Q416.9406 32.39375 417.3625 33.003124Q417.78436 33.596874 417.78436 34.503124Q417.78436 35.378124 417.26874 36.159374Q416.7531 36.940624 415.78436 37.3625Q414.8156 37.784374 413.59686 37.784374Q411.58124 37.784374 410.51874 36.940624Q409.45624 36.096874 409.15936 34.45625Z" fill-rule="nonzero"/></svg>